# xmcd
#
# Track frame offsets:
# 150
# 14402
# 37342
# 55962
# 73135
# 90120
# 117467
# 141805
# 157567
# 187135
# 198915
# 208492
#
# Disc length: 3080 seconds
#
#
# Revision: 2
# Processed by: cddbd v1.5.2PL0 Copyright (c) Steve Scherf et al.
# Submitted via: FreeRIP 2.96 
#
DISCID=af0c060c
DTITLE=Various Artist - Santa Baby!
DYEAR=2002
DGENRE=Blues
TTITLE0=Jingle Bell Jamboree [Keb' Mo' (born Kevin Moore)] [from VA compilation 'Santa Baby! The Jingle Bell Jamboree', 2002]
TTITLE1=Christmas Song [Yomo Toro] [from VA compilation 'Santa Baby! The Jingle Bell Jamboree', 2002]
TTITLE2=Santa Baby [Sheila E. (born Sheila Escovedo)] [from VA compilation 'Santa Baby! The Jingle Bell Jamboree', 2002]
TTITLE3=Joy Boogie [Chuck Leavell] [from VA compilation 'Santa Baby! The Jingle Bell Jamboree', 2002]
TTITLE4=The Christmas Song [Aimee Mann] [from VA compilation 'Santa Baby! The Jingle Bell Jamboree', 2002]
TTITLE5=Christmas Time Is Here [Vince Guaraldi Trio] [from VA compilation 'Santa Baby! The Jingle Bell Jamboree', 2002]
TTITLE6=Coventry Carol [Karrin Allyson] [from VA compilation 'Santa Baby! The Jingle Bell Jamboree', 2002]
TTITLE7=Adeste Fideles/Little Drummer Boy [Jacky Terrasson] [from VA compilation 'Santa Baby! The Jingle Bell Jamboree', 2002]
TTITLE8=We Three Kings of Orient Are [Gypsy Soul] [from VA compilation 'Santa Baby! The Jingle Bell Jamboree', 2002]
TTITLE9=My Evergreen [Squirrel Nut Zippers] [from VA compilation 'Santa Baby! The Jingle Bell Jamboree', 2002]
TTITLE10=What Child Is This [Charlie Byrd] [from VA compilation 'Santa Baby! The Jingle Bell Jamboree', 2002]
TTITLE11=Rock of Ages [Marc Cohn] [from VA compilation 'Santa Baby! The Jingle Bell Jamboree', 2002]
EXTD=
EXTT0=
EXTT1=
EXTT2=
EXTT3=
EXTT4=
EXTT5=
EXTT6=
EXTT7=
EXTT8=
EXTT9=
EXTT10=
EXTT11=
PLAYORDER=
